<?xml version="1.0" encoding="UTF-8"?><svg id="Layer_2" xmlns="http://www.w3.org/2000/svg" viewBox="0 0 16.53 16.53"><g id="Layer_1-2"><path d="M1.19,12.34c-.28.28-.44.66-.44,1.06v1.63c0,.41.34.75.75.75h2.25c.41,0,.75-.34.75-.75v-.75c0-.41.34-.75.75-.75h.75c.41,0,.75-.34.75-.75v-.75c0-.41.34-.75.75-.75h.13c.4,0,.78-.16,1.06-.44l.61-.61c2.54.89,5.32-.46,6.21-3,.89-2.54-.46-5.32-3-6.21-2.54-.89-5.32.46-6.21,3-.36,1.04-.36,2.17,0,3.21L1.19,12.34Z" fill="none" stroke="#f8f5eb" stroke-linecap="round" stroke-linejoin="round" stroke-width="1.5"/><circle cx="11.62" cy="4.91" r=".38" stroke="#f8f5eb" stroke-linecap="round" stroke-linejoin="round" stroke-width="1.5"/></g></svg>