<?xml version="1.0" encoding="UTF-8"?><svg id="Layer_2" xmlns="http://www.w3.org/2000/svg" viewBox="0 0 15.03 15.03"><g id="Layer_1-2"><path d="M11.76.27c-2.54-.89-5.32.46-6.21,3-.36,1.04-.36,2.17,0,3.21L.44,11.59c-.28.28-.44.66-.44,1.06v1.63c0,.41.34.75.75.75h2.25c.41,0,.75-.34.75-.75v-.75c0-.41.34-.75.75-.75h.75c.41,0,.75-.34.75-.75v-.75c0-.41.34-.75.75-.75h.13c.4,0,.78-.16,1.06-.44l.61-.61c2.54.89,5.32-.46,6.21-3,.89-2.54-.46-5.32-3-6.21ZM11.05,5.42c-.84,0-1.52-.68-1.52-1.52s.68-1.52,1.52-1.52,1.52.68,1.52,1.52-.68,1.52-1.52,1.52Z" fill="#f8f5eb"/></g></svg>