<?xml version="1.0" encoding="UTF-8"?><svg id="Layer_2" xmlns="http://www.w3.org/2000/svg" viewBox="0 0 28.39 14.63"><g id="Layer_1-2"><path d="M4.13,13.9c3.64,1.76,8.01.23,9.77-3.4h1.3c.6,0,1.17-.24,1.59-.66l.14-.14c.44-.44,1.15-.44,1.59,0l.8.8c.44.44,1.15.44,1.59,0l.8-.8c.44-.44,1.15-.44,1.59,0l.8.8c.44.44,1.15.44,1.59,0l2.39-2.39c.44-.44.44-1.15,0-1.59l-1.73-1.73c-.42-.42-.99-.66-1.59-.66h-10.84c-.72-1.49-1.92-2.68-3.4-3.4C6.86-1.03,2.49.5.73,4.13c-1.76,3.64-.23,8.01,3.4,9.77ZM3.71,8.84c-.89-.89-.89-2.34,0-3.23s2.34-.89,3.23,0,.89,2.34,0,3.23-2.34.89-3.23,0Z" fill="#f8f5eb"/></g></svg>