<?xml version="1.0" encoding="UTF-8"?><svg id="Layer_2" xmlns="http://www.w3.org/2000/svg" viewBox="0 0 2334.63 2426.54"><g id="lamp-gray"><path d="M1876.42,175.34l-133.64-42.35c-63.44-20.1-138.9,17.45-159,80.89l-62.98,198.75c-2.66,1.11-5.24,2.46-7.7,4.06l-163.83,106.57h0l-56.75,201.93,577.75,197.76,72.32-189.67-60.3-185.91c-.67-2.07-1.5-4.07-2.43-6.01l67.28-212.34c20.1-63.44-7.29-133.58-70.73-153.68Z" fill="#333"/></g><g id="lamp-black"><path d="M1942.6,733.28l-60.3-185.91c-4.61-14.2-15.56-25.45-29.64-30.44l-297.37-105.26c-14.08-4.98-29.67-3.13-42.19,5.01l-163.83,106.57,205.2,72.63-261.94,128.67,577.75,197.76-99.75-249.95,172.07,60.91Z" fill="#1a1a1a"/></g><g id="lamp-light"><path d="M1457.23,561.47c-13.03,7.5-22.27,17.45-26.62,29.76-18.27,51.62,56.15,125.06,166.23,164.02,110.08,38.96,214.12,28.7,232.4-22.92,4.36-12.31,3.43-25.86-1.97-39.88l-370.02-130.98Z" fill="#fff"/></g><g id="lamp-arm"><path d="M1805.49,299.36V0h-81.39v299.36c-4.87,7.55-7.7,16.52-7.7,26.14,0,26.69,21.71,48.4,48.4,48.4s48.4-21.71,48.4-48.4c0-9.63-2.84-18.6-7.7-26.14Z" fill="#1a1a1a"/></g><g id="light-dark"><polygon points="2334.63 2426.54 2334.63 1725.01 1771.15 694.79 1491.13 605.52 0 1336.99 0 2426.54 2334.63 2426.54" fill="#fff"/></g><g id="light-middle"><polygon points="2334.63 2426.54 2334.63 1993.58 1771.15 694.79 1491.13 605.52 0 1512.56 0 2426.54 2334.63 2426.54" fill="#fff"/></g><g id="light-bright"><polygon points="2334.63 2426.54 2334.63 2408.53 1771.15 694.79 1491.13 605.52 0 1715.42 0 2426.54 2334.63 2426.54" fill="#fff"/></g></svg>