<?xml version="1.0" encoding="UTF-8"?><svg id="Layer_2" xmlns="http://www.w3.org/2000/svg" viewBox="0 0 866.03 1639.58"><g id="Layer_1-2"><path d="M460.61,156.15c11.4-5.03,16.56-18.35,11.53-29.74-2.34-5.3-6.62-9.49-11.96-11.72L266.84,26.63c-11.89-5.42-25.55-5.42-37.45,0L36.07,114.6c-11.41,5-16.61,18.3-11.61,29.71,2.27,5.19,6.42,9.34,11.61,11.61l193.32,88.16c11.89,5.42,25.55,5.42,37.45,0l193.77-87.93Z" fill="none" stroke="#754aaa" stroke-linecap="round" stroke-linejoin="round" stroke-width="45.12"/><path d="M473.7,135.36v135.35" fill="none" stroke="#754aaa" stroke-linecap="round" stroke-linejoin="round" stroke-width="45.12"/><path d="M112.77,191.75v78.95c0,37.38,60.6,67.67,135.35,67.67s135.35-30.3,135.35-67.67v-78.95" fill="none" stroke="#754aaa" stroke-linecap="round" stroke-linejoin="round" stroke-width="45.12"/><polyline points="114.33 852.75 114.33 787.93 49.51 787.93" fill="none" stroke="#754aaa" stroke-linecap="round" stroke-linejoin="round" stroke-width="33"/><path d="M81.92,962.95l-45.37-45.37c-14.32-14.32-14.32-37.54,0-51.86l77.78-77.78" fill="none" stroke="#754aaa" stroke-linecap="round" stroke-linejoin="round" stroke-width="33"/><path d="M397.59,995.87l-117.32,119.57c-11.41,11.62-17.74,27.43-17.56,43.87v126.78" fill="none" stroke="#e6a54b" stroke-linecap="round" stroke-linejoin="round" stroke-width="33"/><path d="M171.75,995.87h-74.94v76.38" fill="none" stroke="#754aaa" stroke-linecap="round" stroke-linejoin="round" stroke-width="33"/><path d="M399.81,1072.24v-76.38s-74.94,0-74.94,0" fill="none" stroke="#e6a54b" stroke-linecap="round" stroke-linejoin="round" stroke-width="33"/><path d="M231.7,1286.09v-126.78c.17-16.44-6.16-32.25-17.56-43.87l-117.32-119.57" fill="none" stroke="#754aaa" stroke-linecap="round" stroke-linejoin="round" stroke-width="33"/><path d="M598.56,696.39v43.08c0,11.1,0,22.2,0,33.29,24.98,0,49.96,0,74.94,0" fill="none" stroke="#e6a54b" stroke-linecap="round" stroke-linejoin="round" stroke-width="33"/><polyline points="533.74 994.58 598.56 994.58 598.56 929.76" fill="none" stroke="#e6a54b" stroke-linecap="round" stroke-linejoin="round" stroke-width="33"/><path d="M423.55,962.17l45.37-45.37c14.32-14.32,37.54-14.32,51.86,0l77.78,77.78" fill="none" stroke="#e6a54b" stroke-linecap="round" stroke-linejoin="round" stroke-width="33"/><path d="M849.53,950.26l-54.01-54.01-52.99,52.99" fill="none" stroke="#e6a54b" stroke-linecap="round" stroke-linejoin="round" stroke-width="33"/><polyline points="175.13 565.06 110.32 565.06 110.32 629.88" fill="none" stroke="#754aaa" stroke-linecap="round" stroke-linejoin="round" stroke-width="33"/><path d="M110.32,565.06l77.78,77.78c14.32,14.32,14.32,37.54,0,51.86l-45.37,45.37" fill="none" stroke="#754aaa" stroke-linecap="round" stroke-linejoin="round" stroke-width="33"/><polyline points="386.31 629.88 386.31 565.06 321.49 565.06" fill="none" stroke="#e6a54b" stroke-linecap="round" stroke-linejoin="round" stroke-width="33"/><path d="M353.9,740.08l-45.37-45.37c-14.32-14.32-14.32-37.54,0-51.86l77.78-77.78" fill="none" stroke="#e6a54b" stroke-linecap="round" stroke-linejoin="round" stroke-width="33"/><polyline points="455.05 767.72 390.23 767.72 390.23 832.54" fill="none" stroke="#e6a54b" stroke-linecap="round" stroke-linejoin="round" stroke-width="33"/><path d="M565.24,800.13l-45.37,45.37c-14.32,14.32-37.54,14.32-51.86,0l-77.78-77.78" fill="none" stroke="#e6a54b" stroke-linecap="round" stroke-linejoin="round" stroke-width="33"/><path d="M794.86,846.14c23.68-124.8-76.93-242.89-172.09-98.34" fill="none" stroke="#e6a54b" stroke-linecap="round" stroke-linejoin="round" stroke-width="33.99"/><path d="M795.06,922.13c22.32,124.8-72.49,242.89-162.16,98.34" fill="none" stroke="#e6a54b" stroke-linecap="round" stroke-linejoin="round" stroke-width="33"/><polyline points="112.58 416.2 112.58 351.38 47.76 351.38" fill="none" stroke="#754aaa" stroke-linecap="round" stroke-linejoin="round" stroke-width="33"/><path d="M80.17,526.39l-45.37-45.37c-14.32-14.32-14.32-37.54,0-51.86l77.78-77.78" fill="none" stroke="#754aaa" stroke-linecap="round" stroke-linejoin="round" stroke-width="33"/><polyline points="448.87 351.38 384.05 351.38 384.05 416.2" fill="none" stroke="#e6a54b" stroke-linecap="round" stroke-linejoin="round" stroke-width="33"/><path d="M384.05,351.38l77.78,77.78c14.32,14.32,14.32,37.54,0,51.86l-45.37,45.37" fill="none" stroke="#e6a54b" stroke-linecap="round" stroke-linejoin="round" stroke-width="33"/><circle cx="248.31" cy="1452.79" r="164.24" transform="translate(-954.55 601.1) rotate(-45)" fill="none" stroke="#754aaa" stroke-linecap="round" stroke-linejoin="round" stroke-width="45.12"/></g></svg>